M48
INCH
T01C0.0150
T02C0.1181
T03C0.0300
T04C0.0350
T05C0.1160
T06C0.0600
T07C0.0320
T08C0.0400
T09C0.1120
T10C0.0500
T11C0.0787
%
T01
X-014180Y-029000
X-020800Y-029010
X-019885Y-019149
X-018714Y-018497
X-018560Y-014690
X+014037Y-013001
X+014023Y-010754
X+016687Y-007091
X+015814Y-006119
X-029360Y+019909
X-029670Y+016210
X-031141Y+020826
X-031181Y+019094
X-015250Y+006250
X-020750Y+006250
X-015500Y+005750
X-035453Y-017219
X-034036Y-016433
X+010250Y-027380
X-013308Y-017516
X-013310Y-015250
X-037250Y+004250
X-037250Y+009000
X-034000Y+006250
X-031750Y+022500
X+034190Y+017000
X-006220Y+017290
X+026750Y+018750
X-004500Y+022750
X+030550Y+018686
X+023010Y+020000
X-010293Y+019143
X-013832Y+018906
X+007500Y+017250
X+030250Y+017250
X-004500Y+021750
X+007000Y+017250
X-008885Y+018719
X-021750Y+018250
X-003250Y+017000
X-015500Y+016790
X+024500Y+018250
X+015500Y+018250
X-014448Y-002913
X-012952Y-005579
X-015104Y-005573
X-015104Y-002122
X-014094Y-003250
X-012780Y-004580
X+002575Y-016323
X+026999Y-016341
X+024725Y-016326
X+024725Y-015620
X+012000Y-016250
X+001500Y-017350
X+001500Y-019110
X-014500Y-019750
X+003000Y-018500
X-006490Y-018500
X+035552Y-015963
X+004450Y-018586
X+005973Y-018863
X+008800Y-018874
X+020680Y-015930
X+004500Y-015750
X-014704Y-017836
X-014729Y-019356
X-015810Y-019342
X+011750Y-015750
X+027103Y-015511
X-007230Y-019250
X+037516Y-012675
X+002500Y-019500
X+008590Y-013910
X+018684Y-013250
X+030750Y-011250
X+015500Y-011500
X+010340Y-017010
X+013750Y-014250
X+005361Y-018204
X+002250Y-019750
X-012214Y-019096
X+005750Y-021250
X+022000Y-021250
X+022000Y-014250
X+004500Y-020750
X+023750Y-013750
X+039530Y-013500
X+031000Y-014570
X+011610Y-014750
X+014000Y-014750
X+002500Y-018836
X-013073Y-018438
X+002125Y-020750
X+040133Y-013220
X-004613Y-017511
X+001001Y-017504
X+022750Y-014000
X+022750Y-010160
X+019160Y-010000
X-011801Y-019394
X+009226Y-019841
X+009310Y-020650
X+030880Y-020650
X+006000Y-019500
X+039150Y-013830
X-017280Y-018124
X-015370Y-018124
X+002510Y-018160
X+006483Y-017584
X-013503Y-004465
X-018377Y-004462
X-018377Y-002194
X-013700Y-004000
X-014803Y-005236
X-018750Y-000820
X-018750Y-007000
X-018050Y-000200
X-018040Y-009000
X-006070Y+003720
X-007420Y+002370
X+002292Y-000967
X+000462Y-001776
X-008503Y-001780
X-016750Y+022750
X-022000Y+022750
X-016750Y+021000
X-022000Y+021000
X+005250Y+027000
X+005250Y+028750
X+019250Y+021250
X+009500Y+021000
X+009500Y+021500
X+017500Y+021500
X+017000Y+013250
X+013250Y+022500
X+015750Y+023000
X+017500Y+023000
X+009500Y+023000
X+015500Y+025750
X+015500Y+023250
X+014250Y+022750
X+028000Y+027000
X+027250Y+027000
X+028500Y+024000
X+007750Y+020750
X+013500Y+020750
X-013500Y+023500
X+024080Y+015580
X+021750Y+015610
X+007250Y+020500
X+011250Y+025250
X+007250Y+020000
X+011250Y+021250
X-013000Y+021000
X+022250Y+029000
X+024500Y+023250
X+030750Y+023250
X+024500Y+022250
X+030840Y+022250
X+032250Y+021750
X+024500Y+021750
X+032250Y+021250
X+024500Y+021250
X+024500Y+020750
X+030790Y+020750
X+024750Y+020000
X+030450Y+020000
X+024420Y+019750
X+030750Y+019750
X+004840Y+029250
X-013220Y+022500
X-019460Y+022500
X-019500Y+023000
X+020500Y+027500
X+026000Y+027500
X-021500Y+023250
X-016750Y+023250
X+008068Y-003591
X+007760Y-003770
X+005920Y-002090
X+005690Y-003530
X+005664Y-003968
X+005653Y-004374
X+005246Y-004307
X-009921Y+011710
X+005175Y-004754
X+007490Y-004020
X+007223Y-004269
X+006937Y-004470
X+006680Y-004707
X+006628Y-003577
X+006433Y-003934
X+006414Y-004327
X+006247Y-004657
X-016250Y-024250
X-016250Y-018516
X-010730Y+013030
X-017500Y+013030
X-017500Y+004500
X+028510Y-021000
X+010250Y-021000
X+009692Y-004562
X-006980Y-020480
X-002009Y-020674
X-009000Y-020250
X-015590Y-020342
X+000250Y-028250
X+026650Y-027980
X+028250Y-027980
X+028260Y-021400
X+033820Y-021270
X+033227Y-008862
X-003960Y-028240
X-017320Y-028650
X-011400Y-028640
X+002790Y-028000
X+025750Y-028000
X+026030Y-011500
X+034560Y-011500
X-004020Y-022763
X+002802Y-022743
X-012109Y-023174
X-005570Y-023174
X-014685Y-026959
X-019685Y-026934
X-019250Y-014750
X+034500Y-004750
X-003107Y-022278
X-004090Y-022300
X-011983Y-022641
X-005590Y-022515
X-003050Y-027420
X+023480Y-028620
X-008500Y-033250
X-008550Y-026674
X-012406Y-022035
X-005620Y-022070
X-005090Y-028500
X-005302Y-026299
X-003650Y-027690
X-012406Y-021401
X-005600Y-021440
X-002760Y-026000
X+031000Y-009850
X+022250Y-009750
X-004750Y-026000
X+021500Y-024500
X-002780Y-023140
X-014983Y-026093
X+020210Y-024826
X+013000Y-014000
X+031835Y-012879
X+031810Y-010787
X+012500Y-025000
X-004889Y-027687
X-004886Y-026369
X-001662Y-026305
X-001662Y-022909
X-029150Y-027300
X-027729Y-026630
X-009257Y-026499
X-009253Y-027738
X-005874Y-027692
X-011206Y-019989
X-006326Y-020287
X+019000Y-027750
X+021100Y-010500
X+021750Y-018000
X+018750Y-016250
X+012446Y-016803
X+020750Y-018000
X-006582Y-027971
X-016000Y+003750
X-020000Y+003500
X-019974Y-011061
X-024130Y-011090
X-024250Y-028750
X-007500Y-029000
X+012440Y-017250
X+018750Y-017070
X+021750Y-017250
X-031250Y-018250
X+011500Y-029000
X+013700Y-017250
X+018330Y-017170
X+016443Y-017184
X+008500Y-021500
X+030150Y-011000
X+016350Y-011170
X+013500Y-021500
X+016445Y-021500
X+000736Y-032236
X+006519Y-031324
X+011866Y-031020
X-016000Y-020750
X-021470Y-017580
X-021533Y-020638
X-018400Y-020842
X-007370Y-020800
X-002701Y-020836
X+009750Y-017750
X+010400Y-014650
X+009250Y-011320
X+011650Y-018860
X+018200Y-019010
X+030585Y-022862
X+034135Y-022847
X+030250Y-014227
X+028590Y-014220
X+030560Y-018580
X+020470Y-019000
X+013250Y-023950
X+011940Y-019180
X+013250Y-019280
X+017738Y-019306
X+033806Y-023905
X+013250Y-022510
X+008880Y-022510
X+020500Y-019500
X+032040Y-024533
X+025750Y-024550
X+025750Y-019500
X+026310Y-007860
X+018543Y-020495
X+029250Y-019500
X+029455Y-025678
X+031604Y-025701
X+012000Y-020500
X+024000Y-020500
X+031214Y-028721
X+030886Y-024203
X+026759Y-024200
X+014250Y-024200
X+026750Y-020500
X+013750Y-022930
X+006230Y-022930
X+003300Y-025980
X+002460Y-026374
X-001470Y-026670
X+026597Y-026984
X+029475Y-026973
X+029483Y-029300
X+026500Y-022940
X-008320Y-027020
X+023230Y-022940
X+024000Y-018750
X+021460Y-020150
X+026245Y-027436
X+028610Y-027425
X+026250Y-020150
X+015880Y-019880
X+021460Y-018750
X+027580Y-022610
X+025760Y-008440
X+025500Y-022660
X+023750Y-022660
X+016250Y-022660
X+025250Y-018290
X-018250Y-021500
X+034460Y-029140
X+034463Y-023643
X-002466Y-022043
X-002460Y-021250
X-007000Y-021250
X-015710Y-021100
X+024930Y-029250
X+024750Y-017800
X+015750Y-017750
X+024000Y-017803
X+016010Y-010840
X+024260Y-009450
X+015540Y-016550
X+022500Y-016250
X+022940Y-026500
X+019317Y-026530
X+020750Y-016550
X+028668Y-016844
X+035524Y-016566
X+025000Y-016750
X+025000Y-024530
X+022040Y-024539
X+024899Y-009347
X+023470Y-009085
X+035547Y-017347
X+029000Y-017338
X+029000Y-009270
X+029750Y-017340
X+029750Y-025270
X+020756Y-025465
X+027250Y-018500
X+021750Y-019250
X+028530Y-017850
X+035606Y-018085
X+020300Y-022340
X+029190Y-022340
X+033993Y-022362
X+017500Y-023220
X+027250Y-023170
X+034480Y-023159
X+028540Y-019250
X+035480Y-019040
X+028550Y-019840
X+036520Y-026760
X+034748Y-026817
X+035500Y-019840
X+033259Y-023404
X-003330Y-021750
X-016000Y-022000
X+035500Y-020347
X-022700Y-025800
X+003398Y-025424
X+006695Y-021754
X+029000Y-021630
X+028500Y-020340
X+039442Y-018341
X+032485Y-018335
X+032500Y-017820
X+039440Y-017830
X+032824Y-017507
X+039440Y-017333
X+039460Y-016838
X+032506Y-016842
X-004382Y-024730
X-006182Y-024673
X-018910Y-030250
X-017630Y-030249
X-014720Y-022342
X-011000Y-022250
X-017510Y-016227
X-018460Y-016213
X-017947Y-019936
X-016000Y-022750
X-010250Y-022750
X-017950Y-022842
X+016000Y-028750
X-010685Y-023935
X-006126Y-028745
X-025661Y-029823
X-021578Y-029764
X-021533Y-027204
X-015330Y-027290
X-015440Y-023360
X+028900Y-025730
X-018260Y-032250
X-010000Y-024250
X-007030Y-027100
X-015708Y-023842
X+016779Y-029394
X+016780Y-026820
X-021750Y-009500
X-021500Y-008000
X-021130Y-006680
X-010250Y-011850
X-017750Y-011750
X-007611Y-011635
X+004530Y-009620
X+000855Y-009874
X-000035Y-010033
X-010000Y-008500
X-020500Y-007750
X+018250Y-004500
X+027500Y+016500
X+003000Y-015250
X-004500Y+017750
X-035250Y-020750
X+034750Y+016500
X+019750Y+016500
X-021900Y+015990
X-006750Y+017750
X+019750Y+025500
X+010306Y-004077
X+009418Y+003131
X+011181Y+003149
X+010929Y+005342
X+008280Y+008160
X+002388Y+000485
X+014750Y-003250
X+008930Y-015320
X-027500Y-014250
X+011322Y+000066
X+008140Y-000370
X+008124Y-002078
X+026090Y+016500
X-034500Y+029000
X+011750Y-015250
X+007237Y-025241
X+035240Y-025241
X+027870Y-015000
X-009393Y-013920
X-009405Y-015500
X-016072Y-017572
X-005290Y-019970
X-001083Y-020110
X-005300Y-015480
X-008350Y-015480
X-017340Y-017572
X-018060Y-017570
X-008962Y-025456
X+017210Y-015070
X+019550Y-015000
X+013090Y+005654
X+039306Y+006406
X-012952Y-006102
X+005464Y-007285
X+006036Y-007303
X+013000Y+011000
X+003977Y+001413
X-000697Y+004057
X-003550Y-005991
X+010750Y-003330
X+008433Y+000169
X+004090Y-006240
X+004082Y-002055
X-015725Y-013824
X-015735Y-017105
X-024480Y-013820
X-025430Y-024480
X-004560Y-006006
X-001227Y+004047
X-022276Y-024141
X-020152Y-017379
X-016410Y-008858
X-014850Y-008840
X-014000Y-014750
X-013776Y-012801
X+010156Y+001511
X+010156Y+007190
X-007066Y-000019
X+004180Y+000580
X-012500Y+007000
X+007620Y+006693
X+008413Y+002154
X+004787Y+002081
X+009145Y+007001
X+009800Y+001780
X+004480Y+000940
X+009942Y-001691
X+009930Y-002360
X-000125Y+004065
X-002952Y-006062
X+011090Y-003010
X+009732Y+000275
X+003660Y-006500
X+003660Y-002060
X-021500Y+018750
X+015750Y-002250
X-028750Y-016000
X+009500Y+011500
X-001381Y+019455
X-005670Y+019750
X+034750Y+016000
X+022000Y+016000
X+027000Y+016000
X+009973Y-000500
X+004734Y+000129
X+011000Y+008110
X+016500Y+008500
X-029750Y-020750
X+004360Y-001671
X+015383Y-002770
X+018185Y-002751
X+018194Y-001231
X+014819Y-022003
X+022000Y+023750
X+031000Y+024250
X+023310Y+024375
X+023050Y+023740
X-013500Y+018500
X+040141Y-021985
X+027874Y-012374
X-010377Y-016279
X-018750Y-007500
X-018770Y-012910
X-015000Y-012910
X-016812Y-014262
X+016908Y-022023
X+009748Y-012385
X+016892Y-012353
X+020383Y-012370
X-000250Y-005340
X+000500Y-006880
X+000500Y-007750
X+000340Y-014910
X+009730Y-014280
X+011110Y-012390
X+000340Y-012880
X-015000Y-014165
X-014632Y-017351
X-015000Y-015250
X-005010Y-025000
X-039720Y+006180
X-038500Y+006750
X-031250Y+015500
X-033993Y+007890
X-040750Y+003750
X-041517Y+004067
X-040715Y+007250
X-042250Y+012390
X-038750Y+003250
X-037004Y+003838
X-037765Y+005600
X-035356Y+005454
X-035356Y+006860
X-034066Y+002598
X-043980Y+018500
X-025776Y+026781
X-028880Y+028045
X-028000Y+018000
X-016500Y+014770
X-016663Y+003122
X-016667Y+002455
X-000330Y-009650
X-023500Y-012750
X-019800Y-018604
X-023830Y-027087
X-023830Y-019470
X-022700Y-022290
X-005560Y-023761
X+011750Y-020000
X+018160Y-020220
X+020500Y-020250
X+023920Y-016320
X+023220Y-022000
X+031564Y-021989
X+032575Y-020660
X+032590Y-020010
X+032500Y-019350
X+032475Y-018727
X+039396Y-019359
X+039500Y-020340
X+039343Y-019825
X+039389Y-018827
X-014346Y+015742
X-022585Y+015292
X-023050Y+022250
X-016750Y+022250
X-023030Y+021750
X-023150Y+020750
X-016750Y+019750
X-023050Y+019750
X-014470Y+018890
X-017890Y+018810
X-014956Y+019114
X-017358Y+019123
X-010590Y+019860
X-009292Y+020883
X-005980Y+020850
X-026750Y-016250
X-025820Y+014000
X-010750Y+012000
X-005250Y+002000
X-027396Y+003635
X-027377Y+011093
X-017994Y+011111
X-020337Y+010483
X-031740Y+011600
X-037500Y+011250
X-038620Y+008500
X-039000Y+010750
X-038145Y+004145
X-011760Y-013830
X-012920Y-010210
X-010674Y-009939
X-033640Y+005790
X-024000Y+004750
X-024000Y-010500
X-011206Y-010350
X-003937Y-010740
X+013250Y-017750
X+016010Y-018250
X+022500Y-018250
X-007500Y-033000
X-016750Y-027650
X-020390Y-027636
X-019500Y+003500
X-017220Y-033755
X-011712Y-024630
X-011709Y-028984
X-023500Y-021500
X-023750Y-017500
X-011013Y+014988
X-011130Y+012480
X-025250Y+012480
X-025440Y-017250
X-026320Y+013340
X-028750Y-015500
X-029506Y-009223
X-029494Y-012534
X-030236Y-008020
X-028290Y-002280
X-029409Y-004663
X-030930Y-004660
X-039950Y+013150
X-032850Y-001680
X-006000Y+013750
X-007840Y+013750
X-026624Y+013757
X-031460Y+000220
X-038288Y-015281
X-037324Y-001203
X-012750Y+011500
X-012750Y+009250
X-009500Y+009250
X-006670Y+020350
X-009270Y+020350
X-021750Y+019250
X-015000Y+020250
X-022250Y+020500
X-039500Y-013750
X-038750Y-016250
X-013500Y-033500
X-007490Y-021763
X-027657Y-005802
X-025381Y-019478
X-020750Y-011680
X-015330Y-001140
X-015620Y-000500
X-006441Y-009380
X-004170Y-005010
X-001813Y+004053
X-005843Y-010893
X-013750Y-018500
X-015000Y-018500
X-017000Y+001250
X-036000Y+008250
X-020228Y+004106
X-017855Y+004228
X-019639Y+009000
X+008250Y+009500
X+016250Y+009500
X-009200Y-008990
X-015500Y-008250
X-019750Y-007750
X-019752Y+010787
X-025105Y+010759
X-025091Y+005985
X-036583Y+008522
X-016750Y+002010
X-015832Y+000171
X-018066Y+000265
X-018705Y+016618
X-007768Y-005940
X-035790Y+006000
X-036670Y+000110
X-030500Y-010000
X-015000Y-010000
X-015000Y-010750
X-011307Y-010764
X-002970Y-010780
X+008000Y+029500
X+006653Y+029919
X+015250Y-001750
X+008736Y-009704
X+008770Y-010800
X+007483Y-013956
X-015966Y-024629
X-025073Y-013482
X-012903Y-013540
X-011700Y-015842
X+000184Y-015808
X+017250Y-002250
X+039999Y-007520
X+039155Y-028230
X+033256Y-028225
X+032166Y-028583
X+038650Y-028560
X+040160Y-028932
X+017500Y-018500
X+012000Y-018250
X+033699Y-010473
X+038780Y-010460
X+036990Y-027020
X+029874Y-027210
X+029866Y-028489
X+035480Y-010827
X+038509Y-010830
X+036250Y-026300
X+028000Y-026500
X+035000Y-011200
X+038270Y-011190
X+035910Y-026000
X+024500Y-026000
X+034171Y-008505
X+034154Y-014166
X+038034Y-014174
X+035910Y-024800
X+022500Y-024870
X+022500Y-026250
X+032250Y-007750
X+032250Y-010750
X+032416Y-014585
X+037896Y-014597
X+035640Y-023920
X-038250Y+008250
X-031740Y+012260
X-030524Y+019144
X-016680Y+029830
X-011572Y+022444
X-024060Y+024000
X-016110Y+024430
X-018430Y+017060
X-019160Y+017050
X-022650Y+023570
X-017030Y+018000
X-008840Y-009940
X-009292Y-006737
X-011470Y+017750
X+020250Y+022000
X+011250Y+017750
X+034500Y+018750
X+033000Y-005410
X+021500Y-013750
X+018300Y-013930
X+036250Y-012360
X+036443Y-015027
X+013250Y+032750
X+027498Y+034257
X+027593Y+033470
X+019450Y+033420
X+021220Y+033420
X+005730Y+028500
X-016250Y+028500
X-015780Y+026960
X-011750Y+021750
X-015500Y+021750
X-013750Y+021000
X-013000Y+023250
X-013000Y+025950
X+004370Y+029540
X-009004Y+029536
X-008997Y+031330
X-019240Y+027310
X-013760Y+033478
X+021000Y+026000
X+021945Y+011857
X+017390Y+020660
X+019500Y+013750
X+020750Y+021500
X+020750Y+014000
X+036530Y+019640
X+036529Y+017482
X+034400Y+020173
X+034250Y+021250
X+034240Y+021260
X+026750Y+023000
X+024750Y+022500
X+030480Y+022500
X-027750Y+023250
X-033000Y+034200
X-033380Y+024929
X-029660Y+025000
X-027875Y+026852
X-043616Y+018059
X-030853Y+024111
X-025906Y+025013
X-011000Y+025250
X+013250Y+034250
X+012550Y-026860
X+012580Y-011540
X+018573Y-005482
X+026307Y+004018
X+020744Y-011754
X-013340Y-013210
X-012860Y-014470
X+012180Y-013320
X+012190Y-011380
X+036614Y-010140
X+042876Y-009803
X+040510Y-027920
X+039750Y-009800
X+038604Y-009250
X+037257Y-027370
X+028913Y-027677
X+037370Y-004910
X+041728Y-009752
X+042420Y-015020
X+041213Y-009750
X+034450Y-027640
X+039890Y-027670
X-036053Y+002166
X-036066Y+000130
X-032580Y-011330
X-010531Y-011533
X-008130Y-011544
X-012230Y-012550
X-012500Y-011000
X-031000Y-010250
X-013750Y-010250
X-006946Y-012953
X-000943Y-012875
X-000930Y-010820
X-043500Y+030000
X-040250Y+006780
X-040250Y+003750
X-040900Y+010630
X-042247Y+009997
X-029250Y+014500
X-032250Y+017890
X-025445Y+024451
X-026230Y+021710
X-015470Y+024500
X-019000Y+023750
X+004000Y+029000
X-018740Y+021500
X-018660Y+029510
X-013200Y+021500
X-018000Y+023500
X-018250Y+021250
X-011750Y+028750
X-017000Y+028750
X-023140Y+020300
X-017625Y+020097
X-014730Y+027990
X-014250Y+028250
X+001500Y+028250
X-013645Y+027680
X-015500Y+019750
X-011530Y+019960
X-010750Y+030480
X-002434Y+013951
X-015670Y+014360
X-007250Y+014250
X-016940Y+005275
X-016930Y+009502
X+007750Y+009500
X+021500Y+015250
X+027000Y+015250
X+024250Y+028500
X+023250Y+029250
X+023250Y+026750
X+025250Y+026750
X+036390Y+016390
X+035980Y+020170
X-003530Y+028000
X-011310Y+030100
X-036433Y+021538
X-042682Y+013162
X-029080Y+024590
X-032000Y+030750
X+003500Y+033500
X-006820Y+014960
X+007750Y+022750
X-006230Y+016500
X+011750Y+018500
X+017800Y+018940
X+016700Y+020250
X+026750Y+020250
X+017370Y+020000
X+022000Y+026750
X+004096Y+026746
X+003030Y+029810
X+013000Y+033200
X+013834Y+033226
X+021660Y+033420
X+014750Y+028750
X+018570Y+028750
X+020000Y+014250
X+033000Y+014250
X+017000Y+022000
X+008925Y+033155
X+009500Y+020000
X+003940Y+027750
X+025500Y+026000
X+025500Y+015500
X+017750Y+022500
X+021250Y+022500
X+021250Y+014750
X+022630Y+028750
X+022620Y+014570
X-036290Y-031180
X-013310Y-024986
X-037000Y-020250
X+007750Y+017000
X+007357Y+018608
X+000424Y+021175
X+004750Y+026500
X+028260Y+021000
X+028520Y+020500
X+034375Y+020675
X+034600Y+022250
X+028500Y+022750
X+028430Y+022000
X+028410Y+028035
X+021250Y+028000
X+028780Y+019500
X+034150Y+019500
X+029547Y+028700
X+029750Y+027750
X+030720Y+026500
X+031260Y+026750
X+028130Y+020250
X+032880Y+020000
X+033470Y+020500
X+038000Y+017000
X+038470Y+029450
X+037350Y+015860
X+030250Y+025250
X+028000Y+025000
X+035925Y+023215
X+034532Y+022997
X+034250Y+022000
X+012500Y+030500
X+012500Y+026250
X+033190Y+026190
X+028250Y+025860
X+028250Y+023750
X+026250Y+025500
X+035620Y+025610
X+012000Y+017500
X+034500Y+023750
X+038596Y+014710
X+039370Y+016630
X+009840Y+025360
X+009102Y+025370
X+009500Y+020500
X+006189Y+025486
X+014000Y+025000
X+013750Y+024000
X+008314Y+023995
X-011750Y+021250
X+007500Y+027500
X+007500Y+024880
X+000590Y+022750
X-005410Y+026970
X+027750Y+024750
X-002874Y+024874
X-003657Y+026263
X+016000Y+024250
X+008100Y+025000
X+003847Y+025154
X+030280Y+021500
X+011850Y+021750
X+011823Y+025718
X+003510Y+025742
X+002970Y+023960
X-005308Y+023102
X-006426Y+023094
X+002480Y+026000
X+029080Y+027250
X-005000Y+027204
X-011430Y+027320
X+002859Y+027258
X+016700Y+018990
X+017500Y+019250
X-005490Y+022155
X-002262Y+022155
X+024750Y+019500
X-003120Y+023340
X+014250Y+019750
X-006750Y+023750
X+008110Y+021740
X+015750Y+022250
X+009500Y+022000
X+009500Y+022500
X+007250Y+023000
X+014250Y+023500
X+007100Y+023500
X+033535Y+000585
X+039320Y+000585
X+035227Y+003107
X+040846Y+000509
X+008580Y+017580
X+018750Y+016500
X+000680Y+020851
X-002666Y+016938
X+011000Y+016670
X+010223Y+016309
X+018100Y+016000
X+014250Y+015900
X-031250Y+018250
X+012010Y+015710
X+017250Y+018500
X-003945Y+013622
X-001628Y+013622
X+021000Y+008750
X+016656Y+009887
X+016230Y+015850
X+016230Y+016730
X-008222Y+011315
X+006430Y+011290
X+014192Y+008097
X+026340Y+002380
X+026670Y+002760
X+026941Y+003748
X+027060Y+003130
X+039800Y+032970
X+038150Y+013946
X+015500Y+020250
X+016310Y+020260
X+031612Y+010453
X+043992Y+014399
X+032552Y+010501
X+040630Y+013710
X+013234Y+014764
X+013855Y+014967
X+015250Y+014500
X+039589Y+009710
X+029510Y+008660
X+042425Y+002845
T02
X-039292Y-025025
X+000156Y-025025
X+039526Y-025025
X+039526Y+025762
X-039253Y+025683
X+000156Y+025762
X+016190Y+031299
X+041190Y+031299
X+039236Y-030830
X+014236Y-030830
X+011270Y+031908
X-001840Y+031896
X-010755Y-031240
X+002354Y-031228
T03
X+018910Y+030799
X+020000Y+030799
X+021080Y+030799
X+022170Y+030799
X+023260Y+030799
X+024340Y+030799
X+025430Y+030799
X+026520Y+030799
X+027600Y+030799
X+028690Y+030799
X+029780Y+030799
X+030860Y+030799
X+031950Y+030799
X+033040Y+030799
X+034120Y+030799
X+035210Y+030799
X+036300Y+030799
X+037380Y+030799
X+038470Y+030799
X+019450Y+031799
X+020540Y+031799
X+021620Y+031799
X+022710Y+031799
X+023800Y+031799
X+024880Y+031799
X+025970Y+031799
X+027060Y+031799
X+028140Y+031799
X+029230Y+031799
X+030320Y+031799
X+031400Y+031799
X+032490Y+031799
X+033580Y+031799
X+034660Y+031799
X+035750Y+031799
X+036840Y+031799
X+037920Y+031799
X+036516Y-030330
X+035426Y-030330
X+034346Y-030330
X+033256Y-030330
X+032166Y-030330
X+031086Y-030330
X+029996Y-030330
X+028906Y-030330
X+027826Y-030330
X+026736Y-030330
X+025646Y-030330
X+024566Y-030330
X+023476Y-030330
X+022386Y-030330
X+021306Y-030330
X+020216Y-030330
X+019126Y-030330
X+018046Y-030330
X+016956Y-030330
X+035976Y-031330
X+034886Y-031330
X+033806Y-031330
X+032716Y-031330
X+031626Y-031330
X+030546Y-031330
X+029456Y-031330
X+028366Y-031330
X+027286Y-031330
X+026196Y-031330
X+025106Y-031330
X+024026Y-031330
X+022936Y-031330
X+021846Y-031330
X+020766Y-031330
X+019676Y-031330
X+018586Y-031330
X+017506Y-031330
X+011470Y+006600
X+011470Y+004600
X-028129Y-009208
X-028129Y-007208
X-028129Y-008208
X+017330Y+001220
X+018330Y+001220
X+019330Y+001220
X+020330Y+001220
X+020330Y+004220
X+019330Y+004220
X+018330Y+004220
X+017330Y+004220
X-042420Y+006300
X-042420Y+004300
T04
X-022696Y-030645
X-022696Y-031645
X-023696Y-030645
X-023696Y-031645
X-024696Y-030645
X-024696Y-031645
X-025696Y-030645
X-025696Y-031645
X-026696Y-030645
X-026696Y-031645
X-027696Y-030645
X-027696Y-031645
X-028696Y-030645
X-028696Y-031645
X-029696Y-030645
X-029696Y-031645
X-030696Y-030645
X-030696Y-031645
X-031696Y-030645
X-031696Y-031645
X-018765Y+031323
X-018765Y+032323
X-017765Y+031323
X-017765Y+032323
X-016765Y+031323
X-016765Y+032323
X-015765Y+031323
X-015765Y+032323
X-014765Y+031323
X-014765Y+032323
X-013765Y+031323
X-013765Y+032323
X-012765Y+031323
X-012765Y+032323
X-011765Y+031323
X-011765Y+032323
X-010765Y+031323
X-010765Y+032323
X-009765Y+031323
X-009765Y+032323
X-028835Y+029553
X-027851Y+029553
X-027851Y+030537
X-028835Y+030537
T05
X-020371Y-031355
X-034021Y-031355
X-021090Y+032033
X-007440Y+032033
T06
X-042177Y+032244
X-040177Y+032244
X-025973Y+031407
X-030713Y+031407
X-042551Y+020220
X-040551Y+020220
X-032055Y-006732
X-042284Y-006808
X-039568Y-006808
T07
X+001230Y+030908
X+002132Y+030908
X+003033Y+030908
X+003935Y+030908
X+004836Y+030908
X+005738Y+030908
X+006640Y+030908
X+007541Y+030908
X+008443Y+030908
X+000779Y+031908
X+001681Y+031908
X+002582Y+031908
X+003484Y+031908
X+004386Y+031908
X+005287Y+031908
X+006189Y+031908
X+007090Y+031908
X+007992Y+031908
X+001208Y+032904
X+002110Y+032904
X+003012Y+032904
X+003913Y+032904
X+004815Y+032904
X+005716Y+032904
X+006618Y+032904
X+007520Y+032904
X-000716Y-030240
X-001618Y-030240
X-002519Y-030240
X-003421Y-030240
X-004322Y-030240
X-005224Y-030240
X-006125Y-030240
X-007027Y-030240
X-007929Y-030240
X-000265Y-031240
X-001167Y-031240
X-002068Y-031240
X-002970Y-031240
X-003872Y-031240
X-004773Y-031240
X-005675Y-031240
X-006576Y-031240
X-007478Y-031240
X-000694Y-032236
X-001596Y-032236
X-002498Y-032236
X-003399Y-032236
X-004301Y-032236
X-005202Y-032236
X-006104Y-032236
X-007005Y-032236
T08
X-010894Y-008579
X-011894Y-008579
X-010894Y-007579
X-011894Y-007579
X-010894Y-006579
X-011894Y-006579
X-010894Y-005579
X-011894Y-005579
X-010894Y-004579
X-011894Y-004579
X-010894Y-003579
X-011894Y-003579
X-010894Y-002579
X-011894Y-002579
X-010894Y-001579
X-011894Y-001579
X-010894Y-000579
X-011894Y-000579
X-010894Y+000420
X-011894Y+000420
X-010894Y+001420
X-011894Y+001420
X-010894Y+002420
X-011894Y+002420
X-010894Y+003420
X-011894Y+003420
X-010894Y+004420
X-011894Y+004420
X-010894Y+005420
X-011894Y+005420
X-010894Y+006420
X-011894Y+006420
X-010894Y+007420
X-011894Y+007420
X-010894Y+008420
X-011894Y+008420
X-007941Y-008548
X-006941Y-008548
X-005941Y-008548
X-004941Y-008548
X-003941Y-008548
X-002941Y-008548
X-001941Y-008548
X-000941Y-008548
X+000750Y-000560
X-000250Y-000560
X+000750Y+000440
X-000250Y+000440
X+000750Y+001440
X-000250Y+001440
X+001031Y-008554
X+002031Y-008554
X+003031Y-008554
X+004031Y-008554
X+005031Y-008554
X+006031Y-008554
X+007031Y-008554
X+008031Y-008554
X+009596Y-008551
X+010596Y-008551
X+011596Y-008551
X+012596Y-008551
X+013596Y-008551
X+014596Y-008551
X+015596Y-008551
X+016596Y-008551
X+006023Y+010362
X+005023Y+010362
X+004023Y+010362
X+003023Y+010362
X+002023Y+010362
X+001023Y+010362
X+000023Y+010362
X-000976Y+010362
X+013000Y+010366
X+012000Y+010366
X+011000Y+010366
X+010000Y+010366
X+009000Y+010366
X+008000Y+010366
X-002913Y+010362
X-003913Y+010362
X-004913Y+010362
X-005913Y+010362
X-006913Y+010362
X-007913Y+010362
X-008913Y+010362
X-009913Y+010362
X-023360Y+009780
X-023360Y+008780
X-023360Y+007780
X-023360Y+006780
X-023360Y+005780
X-023360Y+004780
X-023360Y+003780
X-023360Y+002780
X-023360Y+001780
X-023360Y+000780
X-023360Y-000220
X-023360Y-001220
X-023360Y-002220
X-023360Y-003220
X-023360Y-004220
X-023360Y-005220
X-023360Y-006220
X-023360Y-007220
X-023360Y-008220
X-023360Y-009220
X-022360Y-009220
X-022360Y-008220
X-022360Y-007220
X-022360Y-006220
X-022360Y-005220
X-022360Y-004220
X-022360Y-003220
X-022360Y-002220
X-022360Y-001220
X-022360Y-000220
X-022360Y+000780
X-022360Y+001780
X-022360Y+002780
X-022360Y+003780
X-022360Y+004780
X-022360Y+005780
X-022360Y+006780
X-022360Y+007780
X-022360Y+008780
X-022360Y+009780
X-041195Y+015532
X-030779Y+006811
X-029779Y+006811
X-028779Y+006811
X-041155Y-000247
X-034665Y-000257
X-034685Y+015472
X+023595Y+012744
X+023595Y+011744
X+024595Y+012744
X+024595Y+011744
X+025595Y+012744
X+025595Y+011744
X+026595Y+012744
X+026595Y+011744
X+027595Y+012744
X+027595Y+011744
X+028595Y+012744
X+028595Y+011744
X+029595Y+012744
X+029595Y+011744
X+030595Y+012744
X+030595Y+011744
X+031595Y+012744
X+031595Y+011744
X+032595Y+012744
X+032595Y+011744
X+033595Y+012744
X+033595Y+011744
X+034595Y+012744
X+034595Y+011744
X+035595Y+012744
X+035595Y+011744
X+036595Y+012744
X+036595Y+011744
X+037595Y+012744
X+037595Y+011744
X+038595Y+012744
X+038595Y+011744
X+039595Y+012744
X+039595Y+011744
X+039476Y-006956
X+039476Y-005956
X+038476Y-006956
X+038476Y-005956
X+037476Y-006956
X+037476Y-005956
X+036476Y-006956
X+036476Y-005956
X+035476Y-006956
X+035476Y-005956
X+034476Y-006956
X+034476Y-005956
X+033476Y-006956
X+033476Y-005956
X+032476Y-006956
X+032476Y-005956
X+031476Y-006956
X+031476Y-005956
X+030476Y-006956
X+030476Y-005956
X+029476Y-006956
X+029476Y-005956
X+028476Y-006956
X+028476Y-005956
X+027476Y-006956
X+027476Y-005956
X+026476Y-006956
X+026476Y-005956
X+025476Y-006956
X+025476Y-005956
X+024476Y-006956
X+024476Y-005956
X+023476Y-006956
X+023476Y-005956
X-022543Y-012748
X-020574Y-012748
X-022543Y-015700
X-020574Y-015700
X-022543Y-014755
X-020574Y-014795
X-022543Y-016685
X-020574Y-016685
X-042834Y-020787
X-042834Y-021787
X-037559Y+033110
X-035757Y+033120
X+040976Y+005393
X+039976Y+005393
X+038976Y+005393
X+037976Y+005393
X+036976Y+005393
X+035976Y+005393
X+034976Y+005393
X+033976Y+005393
X+032976Y+005393
X+031976Y+005393
X+030976Y+005393
X+029976Y+005393
X+028976Y+005393
X+027976Y+005393
X+026976Y+005393
X+040976Y-000708
X+039976Y-000708
X+038976Y-000708
X+037976Y-000708
X+036976Y-000708
X+035976Y-000708
X+034976Y-000708
X+033976Y-000708
X+032976Y-000708
X+031976Y-000708
X+030976Y-000708
X+029976Y-000708
X+028976Y-000708
X+027976Y-000708
X+026976Y-000708
X+033783Y-002759
X+034783Y-002759
X+035783Y-002759
X+037307Y-002755
X+038307Y-002755
X+039307Y-002755
X+043346Y-003322
X+043346Y-002322
X+043307Y+007779
X+043307Y+008779
X+006007Y-027086
X+007007Y-027086
X+026732Y+007007
X+025732Y+007007
X+024732Y+007007
X-029944Y-018980
X-028944Y-018980
X-027944Y-018980
X+042188Y-030787
X+043188Y-030787
X-016059Y-031145
X-015059Y-031145
X-014059Y-031145
X-028641Y-001257
X-030610Y-001257
X-028641Y+001695
X-030610Y+001695
X-028641Y+000750
X-030610Y+000790
X-028641Y+002680
X-030610Y+002680
X+042870Y+024000
X+042870Y+023000
X+042870Y+022000
X+042870Y+021000
X+042870Y+020000
X+042870Y+019000
X+040330Y+019710
X+040330Y+018710
X+040330Y+017710
X+040330Y+016710
X+040330Y+015710
X+040330Y+014710
X+004620Y+019080
X+004620Y+020080
X+004620Y+021080
X+004620Y+022080
X+004620Y+023080
X+003620Y+023080
X+003620Y+022080
X+003620Y+021080
X+003620Y+020080
X+003620Y+019080
T09
X+020000Y+012244
X+043190Y+012244
X+043071Y-006456
X+019881Y-006456
T10
X-038041Y+032214
X-035246Y+032214
X+008055Y-030011
X+010023Y-030366
X+008094Y-033279
X-042011Y-029939
X-040043Y-030293
X-041972Y-033206
T11
X+007464Y-032177
X+009511Y-032177
X-042602Y-032104
X-040555Y-032104
M30
